<svg xmlns="http://www.w3.org/2000/svg"><symbol id="bye_init" viewBox="0 0 54 54"><mask id="path-1-inside-1_6_307" fill="#fff"><path fill-rule="evenodd" clip-rule="evenodd" d="M0 0c0 29.823 24.177 54 54 54V0H0Z"/></mask><path fill-rule="evenodd" clip-rule="evenodd" d="M0 0c0 29.823 24.177 54 54 54V0H0Z" fill="#fff"/><path d="M54 54v3h3v-3h-3ZM0 0v-3h-3v3h3Zm54 0h3v-3h-3v3Zm0 51C25.834 51 3 28.166 3 0h-6c0 31.48 25.52 57 57 57v-6ZM51 0v54h6V0h-6ZM0 3h54v-6H0v6Z" mask="url(#path-1-inside-1_6_307)"/></symbol><symbol id="bye_res_init" viewBox="0 0 54 54"><mask id="path-1-inside-1_6_346" fill="#fff"><path fill-rule="evenodd" clip-rule="evenodd" d="M0 54V0h54c0 29.823-24.177 54-54 54Z"/></mask><path fill-rule="evenodd" clip-rule="evenodd" d="M0 54V0h54c0 29.823-24.177 54-54 54Z" fill="#fff"/><path d="M0 54h-3v3h3v-3ZM0 0v-3h-3v3h3Zm54 0h3v-3h-3v3ZM3 54V0h-6v54h6ZM0 3h54v-6H0v6Zm51-3c0 28.166-22.833 51-51 51v6c31.48 0 57-25.52 57-57h-6Z" mask="url(#path-1-inside-1_6_346)"/></symbol><symbol id="bye_res_resp" viewBox="0 0 54 54"><path fill-rule="evenodd" clip-rule="evenodd" d="M0 54V0h54c0 29.823-24.177 54-54 54Z"/></symbol><symbol id="bye_resp" viewBox="0 0 54 54"><mask id="path-1-inside-1_6_342" fill="#fff"><path fill-rule="evenodd" clip-rule="evenodd" d="M0 0c0 29.823 24.177 54 54 54V0H0Z"/></mask><path fill-rule="evenodd" clip-rule="evenodd" d="M0 0c0 29.823 24.177 54 54 54V0H0Z"/><path d="M54 54v3h3v-3h-3ZM0 0v-3h-3v3h3Zm54 0h3v-3h-3v3Zm0 51C25.834 51 3 28.166 3 0h-6c0 31.48 25.52 57 57 57v-6ZM51 0v54h6V0h-6ZM0 3h54v-6H0v6Z" mask="url(#path-1-inside-1_6_342)"/></symbol><symbol id="dl-logo-red" viewBox="0 0 91.062 90.739"><g><path id="bg" fill="#c11a6b" fill-opacity="1" d="M0 0h91.062v91.062H0z"/></g><g opacity=".997"><g fill="#300654" fill-opacity=".996" aria-label="RESEARCH REVERSE RELEASE REPEAT"><path d="M12.207-75.744q.466.158.902.673.444.516.888 1.418l1.468 2.922h-1.554l-1.367-2.743q-.53-1.074-1.032-1.425-.494-.35-1.353-.35H8.583v4.518H7.137v-10.692h3.265q1.834 0 2.736.766t.902 2.314q0 1.01-.472 1.675-.466.666-1.36.924zm-3.624-4.49v3.795h1.82q1.045 0 1.575-.48.537-.486.537-1.425 0-.938-.537-1.41-.53-.48-1.576-.48zM15.648-81.423h6.76v1.218h-5.313v3.165h5.091v1.217h-5.091v3.875h5.442v1.217h-6.889zM29.644-81.072v1.41q-.824-.393-1.554-.586-.73-.194-1.41-.194-1.182 0-1.827.459-.637.458-.637 1.303 0 .709.422 1.074.43.358 1.619.58l.873.18q1.619.307 2.385 1.088.774.773.774 2.077 0 1.554-1.046 2.356-1.038.802-3.05.802-.76 0-1.62-.172-.852-.172-1.768-.509v-1.49q.88.495 1.726.746.845.25 1.661.25 1.24 0 1.912-.487.673-.487.673-1.389 0-.788-.487-1.232-.48-.444-1.582-.666l-.881-.172q-1.619-.322-2.342-1.01-.723-.687-.723-1.912 0-1.418.995-2.234 1.003-.816 2.757-.816.752 0 1.533.136t1.597.408zM30.864-81.423h6.76v1.218h-5.313v3.165h5.091v1.217h-5.091v3.875h5.442v1.217h-6.889z" transform="translate(6.246 90.236) scale(.26458)"/><path d="m42.025-79.997-1.962 5.321h3.931zm-.816-1.425h1.64l4.074 10.692H45.42l-.974-2.743h-4.82l-.974 2.743h-1.525z" transform="translate(6.246 90.236) scale(.26458)"/><path d="M51.875-75.744q.466.158.902.673.444.516.888 1.418l1.468 2.922H53.58l-1.367-2.743q-.53-1.074-1.032-1.425-.494-.35-1.353-.35H48.25v4.518h-1.446v-10.692h3.265q1.834 0 2.736.766t.902 2.314q0 1.01-.472 1.675-.466.666-1.36.924zm-3.624-4.49v3.795h1.82q1.045 0 1.575-.48.537-.486.537-1.425 0-.938-.537-1.41-.53-.48-1.576-.48z" transform="translate(6.246 90.236) scale(.26458)"/><path d="M62.591-80.599v1.525q-.73-.68-1.561-1.017-.824-.336-1.755-.336-1.833 0-2.807 1.124-.974 1.118-.974 3.237 0 2.113.974 3.237.974 1.118 2.807 1.118.931 0 1.755-.337.83-.337 1.561-1.017v1.511q-.76.516-1.611.774-.845.257-1.79.257-2.428 0-3.825-1.482-1.396-1.49-1.396-4.06 0-2.579 1.396-4.061 1.397-1.49 3.824-1.49.96 0 1.805.258.852.25 1.597.76zM63.146-81.423h1.447v4.383h5.256v-4.383h1.447v10.692h-1.447v-5.092h-5.256v5.092h-1.447zM97.177-75.744q.466.158.902.673.444.516.888 1.418l1.468 2.922h-1.554l-1.367-2.743q-.53-1.074-1.032-1.425-.494-.35-1.353-.35h-1.576v4.518h-1.446v-10.692h3.265q1.834 0 2.736.766.902.767.902 2.314 0 1.01-.472 1.675-.466.666-1.361.924zm-3.624-4.49v3.795h1.82q1.045 0 1.575-.48.537-.486.537-1.425 0-.938-.537-1.41-.53-.48-1.576-.48zM100.62-81.423h6.76v1.218h-5.313v3.165h5.091v1.217h-5.091v3.875h5.442v1.217h-6.889z" transform="translate(6.246 90.236) scale(.26458)"/><path d="m110.96-70.73-4.082-10.692h1.511l3.388 9.002 3.394-9.002h1.504L112.6-70.73z" transform="translate(6.246 90.236) scale(.26458)"/><path d="M116.56-81.423h6.76v1.218h-5.313v3.165h5.091v1.217h-5.091v3.875h5.442v1.217h-6.889zM129.21-75.744q.466.158.902.673.444.516.888 1.418l1.468 2.922h-1.554l-1.367-2.743q-.53-1.074-1.032-1.425-.494-.35-1.353-.35h-1.576v4.518h-1.446v-10.692h3.265q1.834 0 2.736.766.903.767.903 2.314 0 1.01-.473 1.675-.466.666-1.36.924zm-3.624-4.49v3.795h1.82q1.045 0 1.575-.48.537-.486.537-1.425 0-.938-.537-1.41-.53-.48-1.576-.48z" transform="translate(6.246 90.236) scale(.26458)"/><path d="M139.06-81.072v1.41q-.824-.393-1.554-.586t-1.41-.194q-1.182 0-1.827.459-.637.458-.637 1.303 0 .709.422 1.074.43.358 1.619.58l.873.18q1.619.307 2.385 1.088.774.773.774 2.077 0 1.554-1.046 2.356-1.038.802-3.05.802-.76 0-1.62-.172-.852-.172-1.768-.509v-1.49q.88.495 1.726.746.845.25 1.661.25 1.24 0 1.912-.487.673-.487.673-1.389 0-.788-.487-1.232-.48-.444-1.582-.666l-.881-.172q-1.619-.322-2.342-1.01-.723-.687-.723-1.912 0-1.418.995-2.234 1.003-.816 2.757-.816.752 0 1.533.136t1.597.408zM140.29-81.423h6.76v1.218h-5.313v3.165h5.091v1.217h-5.091v3.875h5.442v1.217h-6.889zM172.55-75.744q.466.158.902.673.444.516.888 1.418l1.468 2.922h-1.554l-1.367-2.743q-.53-1.074-1.032-1.425-.494-.35-1.353-.35h-1.576v4.518h-1.446v-10.692h3.265q1.834 0 2.736.766.903.767.903 2.314 0 1.01-.473 1.675-.466.666-1.36.924zm-3.624-4.49v3.795h1.82q1.045 0 1.575-.48.537-.486.537-1.425 0-.938-.537-1.41-.53-.48-1.576-.48zM176-81.423h6.76v1.218h-5.313v3.165h5.091v1.217h-5.091v3.875h5.442v1.217H176zM183.58-81.423h1.447v9.475h5.206v1.217h-6.653z" transform="translate(6.246 90.236) scale(.26458)"/><path d="M190.07-81.423h6.76v1.218h-5.313v3.165h5.091v1.217h-5.091v3.875h5.442v1.217h-6.889z" transform="translate(6.246 90.236) scale(.26458)"/><path d="m201.23-79.997-1.962 5.321h3.931zm-.816-1.425h1.64l4.074 10.692h-1.503l-.974-2.743h-4.82l-.974 2.743h-1.525z" transform="translate(6.246 90.236) scale(.26458)"/><path d="M212.42-81.072v1.41q-.824-.393-1.554-.586-.73-.194-1.41-.194-1.182 0-1.827.459-.637.458-.637 1.303 0 .709.422 1.074.43.358 1.619.58l.873.18q1.619.307 2.385 1.088.774.773.774 2.077 0 1.554-1.046 2.356-1.038.802-3.05.802-.76 0-1.62-.172-.852-.172-1.768-.509v-1.49q.88.495 1.726.746.845.25 1.661.25 1.24 0 1.912-.487t.673-1.389q0-.788-.487-1.232-.48-.444-1.582-.666l-.881-.172q-1.619-.322-2.342-1.01-.723-.687-.723-1.912 0-1.418.995-2.234 1.003-.816 2.757-.816.752 0 1.533.136t1.597.408zM213.64-81.423h6.76v1.218h-5.313v3.165h5.091v1.217h-5.091v3.875h5.442v1.217h-6.889zM245.91-75.744q.466.158.902.673.444.516.888 1.418l1.468 2.922h-1.554l-1.367-2.743q-.53-1.074-1.032-1.425-.494-.35-1.353-.35h-1.576v4.518h-1.446v-10.692h3.265q1.834 0 2.736.766.903.767.903 2.314 0 1.01-.473 1.675-.466.666-1.36.924zm-3.624-4.49v3.795h1.82q1.045 0 1.575-.48.537-.486.537-1.425 0-.938-.537-1.41-.53-.48-1.576-.48zM249.35-81.423h6.76v1.218h-5.313v3.165h5.091v1.217h-5.091v3.875h5.442v1.217h-6.889zM258.39-80.234v4.018h1.819q1.01 0 1.561-.523t.552-1.49q0-.96-.552-1.482t-1.561-.523zm-1.447-1.189h3.266q1.798 0 2.714.817.924.809.924 2.377 0 1.583-.924 2.392-.916.81-2.714.81h-1.819v4.296h-1.447zM264.1-81.423h6.76v1.218h-5.313v3.165h5.091v1.217h-5.091v3.875h5.442v1.217H264.1z" transform="translate(6.246 90.236) scale(.26458)"/><path d="m275.27-79.997-1.962 5.321h3.931zm-.816-1.425h1.64l4.074 10.692h-1.503l-.974-2.743h-4.82l-.974 2.743h-1.525zM277.42-81.423h9.045v1.218h-3.796v9.474h-1.453v-9.475h-3.796z" transform="translate(6.246 90.236) scale(.26458)"/></g><g fill="#fff"><path d="M-40.856 32.174h3.883c2.53 0 4.042-.248 5.396-.926 2.574-1.264 4.087-4.018 4.087-7.383 0-3.16-1.31-5.78-3.635-7.18-1.31-.79-3.296-1.196-5.915-1.196h-3.816zm3.093-2.958v-10.77h.61c1.964 0 3.025.18 3.996.678 1.58.812 2.551 2.596 2.551 4.74 0 2.01-.925 3.794-2.415 4.607-.926.52-2.213.745-4.064.745zM-14.022 27.252c.09-.429.113-.7.113-1.151 0-3.884-2.732-6.729-6.457-6.729a6.543 6.543 0 0 0-6.593 6.593c0 3.658 2.958 6.502 6.773 6.502 2.055 0 3.658-.745 4.967-2.257.475-.587.79-1.107.994-1.739H-17.5c-.768.903-1.513 1.242-2.754 1.242-1.784 0-3.094-.948-3.455-2.461zm-9.776-2.642c.474-1.603 1.693-2.483 3.477-2.483 1.851 0 3.07.88 3.454 2.483z" style="font-feature-settings:normal;font-variant-caps:normal;font-variant-ligatures:normal;font-variant-numeric:normal" transform="translate(51.806 12.115)"/><path d="M-11.055 28.539c1.287 1.716 2.484 2.393 4.222 2.393 2.777 0 4.967-2.19 4.967-4.922 0-2.777-2.145-4.944-4.9-4.944-1.828 0-3.34.88-4.29 2.506h-1.873c.993-2.484 3.364-4.042 6.141-4.042 3.703 0 6.615 2.845 6.615 6.435 0 3.68-2.935 6.502-6.728 6.502a6.602 6.602 0 0 1-4.109-1.4c-.79-.631-1.264-1.241-1.942-2.528z" stroke="#4310a2" stroke-linejoin="bevel" stroke-width=".165" style="font-feature-settings:normal;font-variant-caps:normal;font-variant-ligatures:normal;font-variant-numeric:normal" transform="translate(51.806 12.115)"/><path d="M12.974 27.252c.09-.429.113-.7.113-1.151 0-3.884-2.732-6.729-6.457-6.729a6.543 6.543 0 0 0-6.593 6.593c0 3.658 2.958 6.502 6.773 6.502 2.055 0 3.658-.745 4.967-2.257.475-.587.79-1.107.994-1.739H9.497c-.768.903-1.513 1.242-2.754 1.242-1.784 0-3.094-.948-3.455-2.461zM3.198 24.61c.474-1.603 1.693-2.483 3.477-2.483 1.851 0 3.07.88 3.454 2.483zM14.011 32.174h3.003v-5.893c0-1.67.113-2.393.497-3.003.474-.745 1.264-1.151 2.212-1.151.768 0 1.4.27 1.806.79.407.542.587 1.468.587 3.138v6.119h3.003v-6.706c0-2.235-.226-3.318-.903-4.29-.813-1.173-2.167-1.806-3.906-1.806-1.422 0-2.416.43-3.522 1.49v-1.196H14.01zM26.969 32.174h3.003v-9.776h1.806v-2.732h-1.806v-4.177h-3.003v4.177h-1.468v2.732h1.468z" style="font-feature-settings:normal;font-variant-caps:normal;font-variant-ligatures:normal;font-variant-numeric:normal" transform="translate(51.806 12.115)"/></g><path d="M-6.708 7.544-16.56 20.57c.168.122.328.255.483.393 1.877-3.106 5.472-5.387 9.37-5.387 3.882 0 7.36 2.137 9.23 5.213.164-.13.333-.253.509-.367zm0 9.893c-3.458 0-6.632 2.292-8.006 5.28.515.978.805 2.126.805 3.384 0 .452-.023.723-.113 1.152h-7.593l-1.183 1.564c.624.57 1.502.896 2.544.896 1.242 0 1.987-.338 2.755-1.241h3.273a4.52 4.52 0 0 1-.455.98c1.377 2.99 4.494 5.21 7.973 5.21 3.394 0 6.457-2.176 7.862-5.062a6.372 6.372 0 0 1-1.117-3.634c0-1.353.396-2.6 1.077-3.639-1.431-2.84-4.48-4.89-7.822-4.89zM4.688 22.61c-.714.416-1.221 1.092-1.49 2h3.003zm-22.852.079-1.453 1.92h2.75c-.205-.854-.648-1.5-1.297-1.92zm21.452 4.563c.362 1.512 1.671 2.46 3.455 2.46 1.13 0 1.85-.285 2.548-1.017L8.2 27.253zm7.727 3.722c-1.16 1-2.532 1.493-4.204 1.493-1.595 0-3.04-.498-4.181-1.344a11.057 11.057 0 0 1-6.489 5.003v6.277c1.061-1.558 2.777-2.415 4.854-2.415 3.658 0 6.502 2.822 6.502 6.457 0 3.702-2.799 6.48-6.524 6.48-2.032 0-3.793-.881-4.832-2.417v2.123h-1.67V36.45c-.389.044-.78.073-1.178.073-3.985 0-7.557-2.265-9.405-5.441-1.132.925-2.464 1.385-4.074 1.385-1.647 0-3.135-.531-4.293-1.429l-4.014 5.306v14.774h6.909v1.512h-8.58V38.553L-43.2 55.79h72.985zm-25.472 9.014c2.145 0 3.658.767 4.877 2.483v-2.19h1.67v12.35h-1.67v-2.167c-1.31 1.761-2.664 2.46-4.764 2.46-3.793 0-6.615-2.754-6.615-6.434 0-3.703 2.8-6.502 6.502-6.502zm26.773 0c1.987 0 3.41 1.354 3.477 3.341H14.1c-.09-1.174-.722-1.806-1.806-1.806-.994 0-1.784.79-1.784 1.783 0 .723.361 1.242 1.129 1.626.361.18.452.226 2.325.993 1.445.61 2.145 1.649 2.145 3.161 0 2.258-1.558 3.838-3.77 3.838-2.371 0-3.952-1.535-3.974-3.928h1.648c.09 1.513.949 2.393 2.326 2.393 1.196 0 2.077-.903 2.077-2.145 0-.677-.294-1.264-.79-1.603-.317-.203-.858-.474-1.604-.767-1.738-.723-1.76-.723-2.28-1.197-.61-.564-.926-1.332-.926-2.213 0-2.009 1.49-3.476 3.5-3.476zm-26.728 1.535a4.847 4.847 0 0 0-4.854 4.854c0 2.822 2.144 5.012 4.944 5.012 2.664 0 4.742-2.19 4.742-4.99 0-2.754-2.123-4.876-4.832-4.876zm15.361 0c-2.754 0-4.922 2.145-4.922 4.877 0 1.4.452 2.528 1.422 3.522.971.993 2.1 1.467 3.477 1.467 2.777 0 4.877-2.144 4.877-4.99 0-2.776-2.077-4.876-4.854-4.876z" fill="#310756" opacity="1" transform="translate(51.806 12.115)"/><path d="M-11.055 28.539c1.287 1.716 2.484 2.393 4.222 2.393 2.777 0 4.967-2.19 4.967-4.922 0-2.777-2.145-4.944-4.9-4.944-1.828 0-3.34.88-4.29 2.506h-1.873c.993-2.484 3.364-4.042 6.141-4.042 3.703 0 6.615 2.845 6.615 6.435 0 3.68-2.935 6.502-6.728 6.502a6.602 6.602 0 0 1-4.109-1.4c-.79-.631-1.264-1.241-1.942-2.528z" fill="#fff" style="font-feature-settings:normal;font-variant-caps:normal;font-variant-ligatures:normal;font-variant-numeric:normal" transform="translate(51.806 12.115)"/></g></symbol><symbol id="gfx-msgs" viewBox="0 0 31 20"><path d="M20 7.5c-2.584-1.09-1.883.079-4 1-1.296-3.543-1.934-4.352-5.5-2-2.02 3.737 1.237 4.246 5.5 8 5.855-3.318 8.94-6.167 14-13.5H1v18h29v-7" stroke="#FF4F37" stroke-linecap="round"/></symbol><symbol id="gfx-profile" viewBox="0 0 23 26"><path d="M1 25.008c7 0 8.283-3.084 5-7.5-12-21 23.5-23 11.5 0-2.567 4.305-1.5 7.5 5 7.5" stroke="#77FF37" stroke-linecap="round"/></symbol><symbol id="gfx-shop" viewBox="0 0 25 27"><path d="M7.88 3.5C15.944 6.833 21.04 2.667 23 1H2l10.08 9.167 5.88-3.334c-2.24 2.5-6.552 8.667-5.88 16.667 0 0 3.36.833 5.88 2.5H6.2" stroke="#379FFF" stroke-linecap="round"/></symbol><symbol id="gfx-vibe" viewBox="0 0 37 11"><path d="M1 6.194c5.866 1.462 7.339-12.386 16.852 0 8.778 10.737 9.04-5.201 18.148 0" stroke="#BF37FF" stroke-width="2" stroke-linecap="round"/></symbol><symbol id="heal_init" viewBox="0 0 58 57"><path fill-rule="evenodd" clip-rule="evenodd" d="M28.818 13.37c-8.064-15.036-23.68-17.89-27.449 0C-2.4 31.26 23.827 52.16 28.819 55v-.117c4.908-2.791 30.707-23.329 27-40.909-3.708-17.58-19.069-14.775-27 0v-.604Z" fill="#fff"/><path d="m1.369 13.37.979.206-.979-.206Zm27.45 0h1v-.251l-.12-.221-.88.472Zm0 41.63-.495.87 1.494.85V55h-1Zm0-.117-.495-.869-.506.288v.581h1Zm27-40.909-.98.207.98-.207Zm-27 0h-1l1.88.473-.88-.473Zm-26.471-.398c.914-4.34 2.524-7.309 4.455-9.142 1.912-1.817 4.194-2.573 6.614-2.413 4.904.325 10.575 4.466 14.52 11.822l1.762-.945C25.58 5.218 19.411.414 13.55.025 10.586-.17 7.753.773 5.425 2.983 3.115 5.177 1.361 8.56.391 13.164l1.957.412Zm26.965 40.555c-2.378-1.354-10.097-7.209-16.745-14.954-3.318-3.864-6.334-8.16-8.288-12.56-1.954-4.402-2.817-8.841-1.932-13.04L.39 13.163c-1 4.745.002 9.627 2.061 14.264 2.06 4.639 5.206 9.1 8.598 13.052 6.77 7.887 14.66 13.902 17.273 15.39l.99-1.74Zm-1.495.752V55h2v-.117h-2Zm1.494.87c2.572-1.463 10.335-7.375 16.996-15.127 3.337-3.884 6.433-8.27 8.46-12.83 2.026-4.559 3.013-9.36 2.029-14.028l-1.957.413c.869 4.121.021 8.48-1.9 12.803-1.92 4.322-4.887 8.542-8.15 12.339-6.538 7.61-14.129 13.362-16.466 14.691l.988 1.739Zm27.485-41.985c-.955-4.527-2.683-7.855-4.958-10.014C49.547 1.58 46.756.65 43.836.844 38.063 1.224 31.99 5.95 27.937 13.5l1.762.946c3.879-7.225 9.453-11.29 14.27-11.608 2.375-.158 4.615.585 6.494 2.366 1.895 1.799 3.478 4.713 4.377 8.976l1.957-.413Zm-28.979-.398v.604h2v-.604h-2Z"/></symbol><symbol id="heal_resp" viewBox="0 0 56 54"><path fill-rule="evenodd" clip-rule="evenodd" d="M27.818 12.37C19.754-2.666 4.138-5.52.37 12.37-3.4 30.26 22.827 51.16 27.819 54v-.117c4.908-2.791 30.707-23.329 27-40.909-3.708-17.58-19.069-14.775-27 0v-.604Z"/></symbol><symbol id="icon-info" viewBox="0 0 24 24"><path d="M11 10.98a1 1 0 1 1 2 0v6a1 1 0 1 1-2 0v-6ZM12 6.051a1 1 0 1 0 0 2 1 1 0 0 0 0-2Z"/><path fill-rule="evenodd" clip-rule="evenodd" d="M12 2C6.477 2 2 6.477 2 12s4.477 10 10 10 10-4.477 10-10S17.523 2 12 2ZM4 12a8 8 0 1 0 16 0 8 8 0 0 0-16 0Z"/></symbol><symbol id="icon-location" viewBox="0 0 315 315"><path d="M157.5 0C93.319 0 41.103 52.215 41.103 116.397c0 62.138 106.113 190.466 110.63 195.898a7.502 7.502 0 0 0 11.534 0c4.518-5.433 110.63-133.76 110.63-195.898C273.897 52.215 221.682 0 157.5 0zm0 295.598c-9.409-11.749-28.958-36.781-48.303-65.397-34.734-51.379-53.094-90.732-53.094-113.804C56.103 60.486 101.59 15 157.5 15c55.91 0 101.397 45.486 101.397 101.397 0 23.071-18.359 62.424-53.094 113.804-19.346 28.616-38.894 53.648-48.303 65.397z"/><path d="M195.657 213.956a7.5 7.5 0 0 0-10.413 2.017c-10.121 14.982-21.459 30.684-33.699 46.67a7.5 7.5 0 0 0 1.395 10.514 7.463 7.463 0 0 0 4.554 1.546 7.489 7.489 0 0 0 5.96-2.941c12.42-16.22 23.933-32.165 34.219-47.392a7.5 7.5 0 0 0-2.016-10.414zM157.5 57.5C123.589 57.5 96 85.089 96 119s27.589 61.5 61.5 61.5S219 152.911 219 119s-27.589-61.5-61.5-61.5zm0 108c-25.64 0-46.5-20.86-46.5-46.5s20.86-46.5 46.5-46.5c25.641 0 46.5 20.86 46.5 46.5s-20.859 46.5-46.5 46.5z"/></symbol><symbol id="icon-qr" viewBox="0 0 512 512"><path fill="var(--ci-primary-color, currentColor)" class="ci-primary" d="M48 48h128V16H16v160h32V48z"/><path fill="var(--ci-primary-color, currentColor)" d="M176 176V80H80v96h96Zm-64-64h32v32h-32ZM328 48h136v128h32V16H328v32z" class="ci-primary"/><path fill="var(--ci-primary-color, currentColor)" d="M432 176V80h-96v96h96Zm-64-64h32v32h-32ZM176 464H48V336H16v160h160v-32z" class="ci-primary"/><path fill="var(--ci-primary-color, currentColor)" d="M176 336H80v96h96v-96Zm-32 64h-32v-32h32ZM464 464H328v32h168V336h-32v128z" class="ci-primary"/><path fill="var(--ci-primary-color, currentColor)" class="ci-primary" d="M272 304h128v64h32v-96H272v32z"/><path fill="var(--ci-primary-color, currentColor)" class="ci-primary" d="M432 432v-32H240V272H80v32h128v128h224zM208 80h32v96h-32z"/><path fill="var(--ci-primary-color, currentColor)" class="ci-primary" d="M80 240h224V80h-32v128H80v32zM336 208h96v32h-96zM336 336h32v32h-32zM272 336h32v32h-32z"/></symbol><symbol id="msg_init" viewBox="0 0 54 54"><circle cx="27" cy="27" r="25.5" fill="#fff" stroke="#000" stroke-width="3"/></symbol><symbol id="msg_resp" viewBox="0 0 54 54"><circle cx="27" cy="27" r="27"/></symbol><symbol id="pass_init" viewBox="0 0 64 54"><path d="M3.421 52.5 32 3l28.579 49.5H3.42Z" fill="#fff" stroke="#000" stroke-width="3"/></symbol><symbol id="pass_resp" viewBox="0 0 64 54"><path d="M3.421 52.5 32 3l28.579 49.5H3.42Z" stroke="#000" stroke-width="3"/></symbol><symbol id="vibe" viewBox="0 0 54 54"><mask id="path-1-inside-1_6_323" fill="#fff"><path fill-rule="evenodd" clip-rule="evenodd" d="M54 0C24.177 0 0 24.177 0 54h54V0Z"/></mask><path fill-rule="evenodd" clip-rule="evenodd" d="M54 0C24.177 0 0 24.177 0 54h54V0Z" fill="#fff"/><path d="M0 54h-3v3h3v-3ZM54 0h3v-3h-3v3Zm0 54v3h3v-3h-3ZM3 54C3 25.834 25.834 3 54 3v-6C22.52-3-3 22.52-3 54h6Zm51-3H0v6h54v-6ZM51 0v54h6V0h-6Z" mask="url(#path-1-inside-1_6_323)"/></symbol><symbol id="vibe_res" viewBox="0 0 54 54"><path fill-rule="evenodd" clip-rule="evenodd" d="M0 54V0h54c0 29.823-24.177 54-54 54Z"/></symbol></svg>